<svg width="308" height="308" viewBox="0 0 308 308" fill="none" xmlns="http://www.w3.org/2000/svg">
<path d="M134.108 198.917C139.456 204.264 146.193 206.779 154.321 206.463C162.449 206.146 168.331 203.203 171.967 197.633L243.833 89.8333L136.033 161.7C130.472 165.55 127.426 171.376 126.896 179.179C126.366 186.982 128.77 193.561 134.108 198.917ZM65.45 256.667C60.7444 256.667 56.4153 255.648 52.4627 253.612C48.51 251.576 45.353 248.53 42.9917 244.475C37.4305 234.422 33.1528 223.997 30.1583 213.2C27.1639 202.403 25.6667 191.225 25.6667 179.667C25.6667 161.914 29.0375 145.23 35.7793 129.617C42.5211 114.003 51.6627 100.421 63.2042 88.8708C74.7456 77.3208 88.3275 68.1791 103.95 61.4459C119.572 54.7127 136.256 51.3418 154 51.3333C171.539 51.3333 188.008 54.6485 203.408 61.2791C218.808 67.9096 232.283 76.9486 243.833 88.3959C255.383 99.8433 264.581 113.211 271.425 128.5C278.269 143.789 281.799 160.203 282.012 177.742C282.226 189.505 280.892 201.004 278.008 212.238C275.125 223.471 270.685 234.217 264.687 244.475C262.335 248.539 259.182 251.589 255.229 253.625C251.277 255.661 246.939 256.675 242.216 256.667H65.45Z" fill="white" fill-opacity="0.1"/>
</svg>
