<svg width="274" height="274" viewBox="0 0 274 274" fill="none" xmlns="http://www.w3.org/2000/svg">
<path d="M45.6667 228.333C39.3875 228.333 34.0141 226.099 29.5463 221.632C25.0786 217.164 22.841 211.787 22.8333 205.5V159.833H79.9167C79.9167 163.068 81.0127 165.781 83.2047 167.973C85.3967 170.165 88.1062 171.258 91.3333 171.25C94.3778 171.25 96.5203 169.869 97.7609 167.106C99.0015 164.343 100.665 161.919 102.75 159.833H171.25C171.25 163.068 172.346 165.781 174.538 167.973C176.73 170.165 179.44 171.258 182.667 171.25C185.711 171.25 187.854 169.869 189.094 167.106C190.335 164.343 191.998 161.919 194.083 159.833H251.167V205.5C251.167 211.779 248.933 217.156 244.465 221.632C239.997 226.107 234.62 228.341 228.333 228.333H45.6667ZM27.6854 137L51.375 82.2C53.0875 78.0139 55.8465 74.684 59.6521 72.2104C63.4576 69.7368 67.5486 68.5 71.925 68.5H79.9167V57.0834C79.9167 50.8042 82.1543 45.4269 86.6297 40.9516C91.105 36.4763 96.4784 34.2424 102.75 34.25H171.25C177.529 34.25 182.906 36.4877 187.382 40.963C191.857 45.4384 194.091 50.8118 194.083 57.0834V68.5H202.075C206.451 68.5 210.542 69.7368 214.348 72.2104C218.153 74.684 220.913 78.0139 222.625 82.2L246.315 137H194.083C194.083 133.765 192.987 131.056 190.795 128.871C188.603 126.687 185.894 125.591 182.667 125.583C179.622 125.583 177.484 126.965 176.251 129.728C175.018 132.49 173.351 134.915 171.25 137H102.75C102.75 133.765 101.654 131.056 99.462 128.871C97.27 126.687 94.5604 125.591 91.3333 125.583C88.2889 125.583 86.1502 126.965 84.9172 129.728C83.6842 132.49 82.0173 134.915 79.9167 137H27.6854ZM102.75 68.5H171.25V57.0834H102.75V68.5Z" fill="white" fill-opacity="0.1"/>
</svg>
